<?xml version="1.0" encoding="utf-8"?><!-- Uploaded to: SVG Repo, www.svgrepo.com, Generator: SVG Repo Mixer Tools -->
<svg fill="#000000" width="800px" height="800px" viewBox="0 0 24 24" id="waze" data-name="Line Color" xmlns="http://www.w3.org/2000/svg" class="icon line-color"><path id="primary" d="M6.66,17.52A7,7,0,0,1,3,13a2.27,2.27,0,0,0,.63.08A2.4,2.4,0,0,0,6,10.6v-.11C6,6.57,8.25,3,13.38,3,18,3,21,6.51,21,11a8.08,8.08,0,0,1-3.39,6.62" style="fill: none; stroke: rgb(0, 0, 0); stroke-linecap: round; stroke-linejoin: round; stroke-width: 2;"></path><path id="primary-2" data-name="primary" d="M10,18.69a17.29,17.29,0,0,0,3.33.3l.62,0" style="fill: none; stroke: rgb(0, 0, 0); stroke-linecap: round; stroke-linejoin: round; stroke-width: 2;"></path><circle id="secondary" cx="16" cy="19" r="2" style="fill: none; stroke: rgb(44, 169, 188); stroke-linecap: round; stroke-linejoin: round; stroke-width: 2;"></circle><circle id="secondary-2" data-name="secondary" cx="8" cy="19" r="2" style="fill: none; stroke: rgb(44, 169, 188); stroke-linecap: round; stroke-linejoin: round; stroke-width: 2;"></circle><line id="secondary-upstroke" x1="15.95" y1="9" x2="16.05" y2="9" style="fill: none; stroke: rgb(44, 169, 188); stroke-linecap: round; stroke-linejoin: round; stroke-width: 2;"></line><line id="secondary-upstroke-2" data-name="secondary-upstroke" x1="11.05" y1="9" x2="10.95" y2="9" style="fill: none; stroke: rgb(44, 169, 188); stroke-linecap: round; stroke-linejoin: round; stroke-width: 2;"></line></svg>